<svg xmlns="http://www.w3.org/2000/svg" xmlns:xlink="http://www.w3.org/1999/xlink" xmlns:lucid="lucid" width="2000" height="1000"><g transform="translate(0 0)" lucid:page-tab-id="0_0"><path d="M419.07 214.2a6 6 0 0 1 6-6h1167.6a6 6 0 0 1 6 6v677.43a6 6 0 0 1-6 6H425.07a6 6 0 0 1-6-6z" stroke="#232f3e" fill="#fff" fill-opacity="0"/><path d="M419.07 208.2h56v56h-56v-56z" stroke="#fff" stroke-opacity="0" fill="#232f3e"/><path d="M459.95 249.4h-25c-4.13.06-7.57-3.08-7.9-7.2v-.63c-.15-3.4 1.97-6.38 5.25-7.36v-.65c.12-4.22 2.44-7.75 6.24-9.57 4.12-1.85 8.73-.95 11.8 2.32 1.1 1.08 1.85 2.2 2.45 3.6 1.2-1.02 2.7-1.33 4.23-.9 2.24.78 3.68 2.73 3.76 5.08 3.67.66 6.3 3.8 6.27 7.57 0 7.07-7.04 7.73-7.12 7.76zm-26.7-13.87c-2.83.6-4.75 3.14-4.6 6.04v.53c.3 3.32 3.1 5.83 6.4 5.75h24.98c3.04-.3 5.4-2.64 5.68-5.7.3-3.43-2.23-6.5-5.67-6.78-.44-.05-.72-.44-.64-.87.07-1.84-1-3.45-2.73-4.14-1.32-.37-2.64.13-3.44 1.24-.2.24-.44.37-.76.32-.28-.05-.48-.24-.6-.5-.6-1.6-1.4-2.85-2.6-4.04-2.7-2.8-6.6-3.6-10.13-2-3.24 1.6-5.2 4.64-5.32 8.25-.04.4-.04.74 0 1.14.04.4-.2.76-.6.84z" stroke="#fff" stroke-opacity="0" fill="#fff"/><use xlink:href="#a" transform="matrix(1,0,0,1,490.0699170121967,228.1897233201583) translate(0 14.4)"/><use xlink:href="#b" transform="matrix(1,0,0,1,490.0699170121967,228.1897233201583) translate(45.3 14.4)"/><path d="M475.24 370.9a6 6 0 0 1 6-6h785.7a6 6 0 0 1 6 6v317.44a6 6 0 0 1-6 6h-785.7a6 6 0 0 1-6-6z" fill="#fff" fill-opacity="0"/><path d="M478.95 365.36l.44-.18.9-.22.94-.07h2m4 0h4.02m4 0h4.02m4 0h4.02m4 0h4.02m4 0h4m4.02 0h4m4.02 0h4m4.02 0h4m4 0h4.02m4 0h4.02m4 0h4.02m4 0h4m4.02 0h4m4.02 0h4m4.02 0h4m4.02 0h4m4 0h4.02m4 0h4.02m4 0h4.02m4 0h4m4.02 0h4m4.02 0h4m4.02 0h4m4 0h4.02m4 0h4.02m4 0h4.02m4 0h4.02m4 0h4m4.02 0h4m4.02 0h4m4.02 0h4m4 0h4.02m4 0h4.02m4 0h4.02m4 0h4.02m4 0h4m4.02 0h4m4.02 0h4m4.02 0h4m4 0h4.02m4 0h4.02m4 0H820m4 0h4m4.02 0h4m4.02 0h4m4.02 0h4m4.02 0h4m4 0h4.02m4 0h4.02m4 0h4.02m4 0h4m4.02 0h4m4.02 0h4m4.02 0h4m4.02 0h4m4 0h4.02m4 0h4.02m4 0h4.02m4 0h4m4.02 0h4m4.02 0h4m4.02 0h4m4 0h4.02m4 0h4.02m4 0h4.02m4 0h4.02m4 0h4m4.02 0h4m4.02 0h4m4.02 0h4m4 0h4.02m4 0h4.02m4 0h4.02m4 0h4.02m4 0h4m4.02 0h4m4.02 0h4m4.02 0h4m4 0h4.02m4 0h4.02m4 0h4.02m4 0h4m4.02 0h4m4.02 0h4m4.02 0h4m4.02 0h4m4 0h4.02m4 0h4.02m4 0h4.02m4 0h4.02m4 0h4m4.02 0h4m4.02 0h4m4.02 0h4m4 0h4.02m4 0h4.02m4 0h4.02m4 0h2l.95.06.9.22.44.18m3.24 3.24l.18.43.22.92.07.94v1.97m0 3.97v3.97m0 3.98v3.96m0 3.97v3.98m0 3.97v3.97m0 3.96v3.97m0 3.97v3.97m0 3.96v3.97m0 3.96v3.96m0 3.97v3.97m0 3.97v3.96m0 3.97v3.97m0 3.97v3.97m0 3.97v3.97m0 3.97V484m0 3.97v3.97m0 3.96v3.97m0 3.97v3.97m0 3.95v3.97m0 3.97v3.96m0 3.97v3.97m0 3.96v3.97m0 3.97v3.97m0 3.97v3.96m0 3.97v3.97m0 3.97v3.98m0 3.96v3.97m0 3.98v3.97m0 3.97v3.97m0 3.95v3.97m0 3.97v3.96m0 3.96v3.97m0 3.96v3.97m0 3.97v3.97m0 3.96v3.97m0 3.97v3.97m0 3.97v3.97m0 3.97v3.97m0 3.98v3.97m0 3.96v3.98m0 3.97v2l-.07.92-.22.92-.18.42m-3.24 3.24l-.44.18-.9.22-.95.08h-2m-4 0h-4.02m-4 0h-4.02m-4 0h-4m-4.02 0h-4m-4 0h-4.02m-4 0h-4.02m-4 0h-4.02m-4 0h-4m-4.02 0h-4m-4.02 0h-4m-4.02 0h-4m-4.02 0h-4m-4 0h-4.02m-4 0h-4.02m-4 0h-4.02m-4 0h-4m-4.02 0h-4m-4.02 0h-4m-4.02 0h-4m-4 0h-4.02m-4 0h-4.02m-4 0h-4.02m-4 0h-4m-4.02 0h-4m-4.02 0h-4m-4.02 0h-4m-4.02 0h-4m-4 0h-4.02m-4 0h-4.02m-4 0h-4.02m-4 0h-4m-4.02 0h-4m-4.02 0h-4m-4.02 0h-4m-4.02 0h-4m-4 0h-4.02m-4 0h-4.02m-4 0h-4.02m-4 0h-4m-4.02 0h-4m-4.02 0h-4m-4.02 0h-4m-4.02 0h-4m-4 0h-4.02m-4 0h-4.02m-4 0h-4.02m-4 0h-4m-4.02 0h-4m-4.02 0h-4m-4.02 0h-4m-4 0h-4.02m-4 0h-4.02m-4 0H840m-4 0H832m-4 0h-4m-4.02 0h-4m-4.02 0h-4m-4.02 0h-4m-4.02 0h-4m-4 0h-4.02m-4 0h-4.02m-4 0h-4.02m-4 0h-4m-4.02 0h-4m-4.02 0h-4m-4.02 0h-4m-4 0h-4.02m-4 0h-4.02m-4 0h-4.02m-4 0h-4m-4.02 0h-4m-4.02 0h-4m-4.02 0h-4m-4.02 0h-4m-4 0h-4.02m-4 0h-4.02m-4 0h-4.02m-4 0h-4m-4.02 0h-4m-4.02 0h-4m-4.02 0h-4m-4.02 0h-4m-4 0h-4.02m-4 0h-4.02m-4 0h-4.02m-4 0h-4m-4.02 0h-4m-4.02 0h-4m-4.02 0h-4m-4 0h-4.02m-4 0h-4.02m-4 0h-4.02m-4 0h-4.02m-4 0h-4m-4.02 0h-4m-4.02 0h-4m-4.02 0h-4m-4 0h-2.02l-.94-.08-.9-.22-.45-.18m-3.24-3.24l-.16-.43-.23-.93-.06-.93v-2m0-3.96v-3.97m0-3.95v-3.97m0-3.97v-3.96m0-3.97v-3.96m0-3.96v-3.97m0-3.97v-3.97m0-3.96v-3.97m0-3.97v-3.97m0-3.97v-3.98m0-3.96V607m0-3.98v-3.97m0-3.96v-3.98m0-3.97v-3.97m0-3.97v-3.96m0-3.96v-3.97m0-3.96v-3.97m0-3.97v-3.96m0-3.97v-3.97m0-3.97v-3.97m0-3.96v-3.97m0-3.97v-3.97m0-3.98v-3.97m0-3.96v-3.98m0-3.97v-3.97m0-3.96v-3.97m0-3.97V480m0-3.96v-3.97m0-3.96v-3.96m0-3.97v-3.97m0-3.97v-3.96m0-3.97v-3.97m0-3.97v-3.97m0-3.97v-3.97m0-3.97v-3.98m0-3.97v-3.97m0-3.96v-3.97m0-3.97v-3.97m0-3.96v-3.96m0-3.97v-3.96m0-3.97v-1.98l.07-.95.24-.92.17-.43" stroke="#5a6c86" fill="none"/><use xlink:href="#c" transform="matrix(1,0,0,1,475.2409581515232,384.8880105401471) translate(367.075 14.4)"/><path d="M1290.14 242.4a6 6 0 0 1 6-6h276.64a6 6 0 0 1 6 6v608.53a6 6 0 0 1-6 6h-276.64a6 6 0 0 1-6-6z" fill="#fff" fill-opacity="0"/><path d="M1293.85 236.88l.43-.17.92-.2.94-.1h1.97m3.97 0h3.95m3.95 0h3.95m3.95 0h3.96m3.95 0h3.95m3.95 0h3.95m3.95 0h3.96m3.95 0h3.94m3.95 0h3.95m3.95 0h3.95m3.95 0h3.95m3.96 0h3.96m3.95 0h3.96m3.95 0h3.97m3.95 0h3.95m3.95 0h3.95m3.96 0h3.95m3.95 0h3.95m3.95 0h3.96m3.94 0h3.95m3.94 0h3.95m3.95 0h3.95m3.95 0h3.95m3.95 0h3.96m3.96 0h3.95m3.96 0h3.95m3.97 0h3.95m3.95 0h3.95m3.95 0h3.96m3.95 0h3.95m3.95 0h3.95m3.96 0h3.94m3.95 0h3.94m3.96 0h3.95m3.95 0h3.95m3.95 0h1.98l.94.1.9.2.45.2m3.24 3.22l.2.44.2.9.08.95v2m0 4.02v4m0 4v4m0 4v4m0 4.02v4m0 4v4m0 4v4m0 4.02v4m0 4v4m0 4v4m0 4.02v4m0 4v4m0 4v4m0 4.02v4m0 4v4m0 4v4m0 4.02v4m0 4v4m0 4v4.02m0 4v4m0 4v4m0 4v4.02m0 4v4m0 4v4m0 4v4.02m0 4v4m0 4v4m0 4v4.02m0 4v4m0 4v4m0 4v4.02m0 4v4m0 4v4m0 4v4.02m0 4v4m0 4v4m0 4v4.02m0 4v4m0 4v4m0 4.02v4m0 4v4m0 4v4m0 4.02v4m0 4v4m0 4v4m0 4.02v4m0 4v4m0 4v4m0 4.02v4m0 4v4m0 4v4m0 4.02v4m0 4v4m0 4v4m0 4.02v4m0 4v4m0 4v4m0 4.02v4m0 4v4m0 4v4.02m0 4v4m0 4v4m0 4v4.02m0 4v4m0 4v4m0 4v4.02m0 4v4m0 4v4m0 4v4.02m0 4v4m0 4v4m0 4v4.02m0 4v4m0 4v4m0 4v4.02m0 4v4m0 4v2l-.07.95-.2.9-.2.45m-3.23 3.24l-.44.18-.9.22-.95.07h-1.98m-3.95 0h-3.95m-3.95 0H1555m-3.96 0h-3.95m-3.96 0h-3.95m-3.97 0h-3.95m-3.95 0h-3.95m-3.95 0h-3.96m-3.95 0h-3.95m-3.95 0h-3.95m-3.96 0h-3.94m-3.95 0h-3.94m-3.95 0h-3.95m-3.95 0h-3.95m-3.95 0h-3.95m-3.96 0h-3.96m-3.95 0h-3.96m-3.95 0h-3.97m-3.95 0h-3.95m-3.95 0h-3.95m-3.96 0h-3.95m-3.95 0h-3.95m-3.95 0h-3.96m-3.94 0H1389m-3.94 0h-3.95m-3.95 0h-3.95m-3.95 0h-3.95m-3.95 0h-3.96m-3.96 0h-3.95m-3.96 0h-3.95m-3.97 0h-3.95m-3.95 0h-3.95m-3.95 0h-3.96m-3.95 0h-3.95m-3.95 0h-3.95m-3.96 0h-1.96l-.94-.07-.92-.22-.43-.18m-3.24-3.24l-.17-.44-.22-.9-.06-.95v-2m0-4v-4m0-4v-4m0-4.02v-4m0-4v-4m0-4v-4m0-4v-4m0-4.02v-4m0-4v-4m0-4v-4m0-4.02v-4m0-4v-4m0-4v-4m0-4.02v-4m0-4v-4m0-4v-4m0-4.02v-4m0-4v-4m0-4v-4m0-4.02v-4m0-4v-4m0-4v-4m0-4.02v-4m0-4v-4m0-4v-4m0-4.02v-4m0-4v-4m0-4v-4.02m0-4v-4m0-4v-4m0-4v-4.02m0-4v-4m0-4v-4m0-4v-4.02m0-4v-4m0-4v-4m0-4v-4.02m0-4v-4m0-4v-4m0-4v-4.02m0-4v-4m0-4v-4m0-4v-4.02m0-4v-4m0-4v-4m0-4v-4.02m0-4v-4m0-4v-4m0-4.02v-4m0-4v-4m0-4v-4m0-4.02v-4m0-4v-4m0-4v-4m0-4.02v-4m0-4v-4m0-4v-4m0-4.02v-4m0-4v-4m0-4v-4.02m0-4v-4m0-4v-4m0-4v-4m0-4.02v-4m0-4v-4m0-4v-4.02m0-4v-4m0-4v-4m0-4v-4.02m0-4v-4m0-4v-4m0-4v-4.02m0-4v-4m0-4v-4m0-4v-4.02m0-4v-4m0-4v-2l.07-.95.23-.9.18-.45" stroke="#5a6c86" fill="none"/><use xlink:href="#d" transform="matrix(1,0,0,1,1290.136873830049,256.4110671936761) translate(25.674999999999997 14.4)"/><use xlink:href="#e" transform="matrix(1,0,0,1,1290.136873830049,256.4110671936761) translate(98.575 14.4)"/><use xlink:href="#f" transform="matrix(1,0,0,1,1290.136873830049,256.4110671936761) translate(204.425 14.4)"/><path d="M736.42 430.95h240v60h-240z" fill="none"/><use xlink:href="#g" transform="matrix(1,0,0,1,736.4173878120686,430.9486166007904) translate(42.12962962962963 34.44444444444444)"/><use xlink:href="#h" transform="matrix(1,0,0,1,736.4173878120686,430.9486166007904) translate(98.05555555555554 34.44444444444444)"/><path d="M475.24 430.95h240v60h-240z" fill="none"/><use xlink:href="#g" transform="matrix(1,0,0,1,475.24095815152305,430.9486166007904) translate(27.376543209876544 34.44444444444444)"/><use xlink:href="#i" transform="matrix(1,0,0,1,475.24095815152305,430.9486166007904) translate(83.30246913580245 34.44444444444444)"/><path d="M1018.13 430.95h240v60h-240z" fill="none"/><use xlink:href="#g" transform="matrix(1,0,0,1,1018.1342387839343,430.9486166007904) translate(31.01851851851852 34.44444444444444)"/><use xlink:href="#j" transform="matrix(1,0,0,1,1018.1342387839343,430.9486166007904) translate(86.94444444444443 34.44444444444444)"/><path d="M521.07 470.94h127.6v127.6h-127.6v-127.6z" stroke="#fff" stroke-opacity="0" stroke-width="2" fill="#3b48cc"/><path d="M579.78 517.65c-4.13-.08-7.54 2.8-8.36 6.76-.92 4.65 2.02 9.13 6.66 10.06v11.23c-.05 1.68-1.15 3.2-2.8 3.7l-15.4 6.1c-2.48.92-4.23 2.7-5.14 5.23-.7-.43-1.38-.68-2.16-.76V546.7c3.4-.67 5.92-3.2 6.6-6.67.98-4.56-2-9.12-6.6-10.05v-20.86c3.4-.68 5.92-3.2 6.6-6.6.93-4.63-2-9.1-6.6-10.04-4.65-.93-9.1 2.03-10.07 6.67-.9 4.56 2.03 9.04 6.67 9.97v20.86c-3.44.76-5.97 3.2-6.66 6.67-.9 4.65 2.03 9.13 6.67 10.06v13.27c-1.28.25-2.34.67-3.4 1.43-3.76 2.87-4.54 8.2-1.74 11.9 2.8 3.8 8.1 4.57 11.9 1.8 3.77-2.8 4.55-8.12 1.75-11.92.1-2.12 1.42-3.8 3.4-4.48l15.44-6.08c3-1.1 4.9-3.8 4.96-6.93v-11.24c4-.85 6.8-4.23 6.8-8.36 0-4.65-3.8-8.53-8.5-8.45zm-34.05-16.8c0-2.8 2.3-5.16 5.1-5.16 2.85 0 5.1 2.35 5.1 5.14 0 2.8-2.25 5.07-5.1 5.07-2.8 0-5.1-2.27-5.1-5.06zm0 37.4c0-2.78 2.3-5.06 5.1-5.06 2.85 0 5.1 2.27 5.1 5.06 0 2.8-2.25 5.15-5.1 5.15-2.76 0-5.06-2.27-5.1-5.06zm5.1 35.06c-2.8 0-5.1-2.27-5.1-5.14 0-2.8 2.3-5.07 5.1-5.07 2.85 0 5.1 2.27 5.1 5.06.05 2.87-2.2 5.15-5 5.24h-.1zm28.95-42.14c-2.85 0-5.1-2.28-5.1-5.15 0-2.78 2.25-5.06 5.1-5.06 2.8 0 5.1 2.28 5.1 5.07.05 2.88-2.2 5.16-5 5.25h-.1z" stroke="#fff" stroke-opacity="0" stroke-width="2" fill="#fff"/><path d="M625.73 577.16h-46c-.93 0-1.66-.75-1.66-1.7v-18.72h3.4v17.02H624V512.5h-42.53v-3.4h44.26c.94 0 1.68.75 1.68 1.7v64.66c0 .95-.73 1.7-1.67 1.7z" stroke="#fff" stroke-opacity="0" stroke-width="2" fill="#fff"/><path d="M594.77 550.74l-6.83-6.64c-.38-.36-.55-.8-.52-1.33.04-.5.27-.92.68-1.24l7.64-5.7 2.04 2.7-6.04 4.54 5.4 5.25zM611.43 551.83l-2.04-2.73 6.03-4.53-5.4-5.25 2.37-2.45 6.8 6.66c.68.65.7 1.73.04 2.4l-.2.18z" stroke="#fff" stroke-opacity="0" stroke-width="2" fill="#fff"/><path d="M597.1 555.24l9.73-22.16 3.1 1.37-9.73 22.15-3.1-1.36z" stroke="#fff" stroke-opacity="0" stroke-width=".8" fill="#fff"/><path d="M574.17 514.7l-1.2 1.2-1.22 1.22-7.3-7.3v6.1h-3.4V505.7c0-.94.76-1.7 1.7-1.7h10.2v3.4h-6.08z" stroke="#fff" stroke-opacity="0" stroke-width="2" fill="#fff"/><path d="M792.6 478.9h127.62v127.62h-127.6v-127.6z" stroke="#fff" stroke-opacity="0" stroke-width="2" fill="#3b48cc"/><path d="M865.64 561l2.37-2.42-4.86-4.8 5.44-4.07-2.04-2.73-7.04 5.28c-.08.06-.14.1-.2.18-.66.68-.65 1.74.03 2.4zM884.57 555.22l-5.44 4.08 2.04 2.73 7.05-5.27c.42-.3.64-.74.68-1.26.03-.52-.14-.97-.5-1.33l-6.33-6.13-2.36 2.44z" stroke="#fff" stroke-opacity="0" stroke-width="2" fill="#fff"/><path d="M867.75 565l9-20.42 3.1 1.38-9 20.4-3.1-1.36z" stroke="#fff" stroke-opacity="0" stroke-width=".81" fill="#fff"/><path d="M900.46 514.22l-4.73-4-7.6-6.2-1.96-1.7c-.36-.35-.7-.44-1.07-.44h-63.15c0-.93-.7-1.7-1.7-1.7h-6.78c-.9 0-1.7.77-1.7 1.7v17.02c0 .93.8 1.7 1.7 1.7h6.8v62.95c0 .94.8 1.7 1.68 1.7h18.76c.9 0 1.7-.76 1.7-1.7V517.2h30.64v12.5l-19.1 7.9h-1.35c-1 0-1.7.78-1.7 1.72v30.62c0 .94.7 1.7 1.7 1.7h44.2c.98 0 1.7-.76 1.7-1.7V539.3v.02c0-.94-.72-1.7-1.7-1.7h-1.34l-19.03-7.92v-12.5h22.96c.7 0 1.33-.43 1.6-1.1.26-.7 0-1.46-.54-1.88zm-16-8.85l-8.74 7.9-10.54-7.98h19.3zm-43.75 8.5h-13.57l8.4-6.37 8.3 6.3zm-16.16 34.8L839 535.83v25.7zm13.58 16.6l-14.38 12.84v-25.68zm-14.38-20.42v-25.6l14.38 12.83zm14.56-39.56h21.25l-10.62 7.98zm24.1 2.1l8.4 6.4h-16.87zm-29.82-2.1l-10.63 8.07v-8.08zm-14.02 11.9h-3.4v-13.62h3.4v13.62zm5.98 64.65L839 569.1v12.75zm14.47-53.6l-12.58-11.05h12.6zm56.1 39.9h-40.82v-27.22h40.82zm-32.33-30.62l11.97-4.94 11.88 4.93zm17.42-23.82l6.86-6.2 7.68 6.3z" stroke="#fff" stroke-opacity="0" stroke-width="2" fill="#fff"/><path d="M1088.5 478.9h127.6v127.62h-127.6v-127.6z" stroke="#fff" stroke-opacity="0" stroke-width="2" fill="#3b48cc"/><path d="M1165.9 543.87c-.85 0-1.6-.66-1.7-1.53v-.5c-.25-2.18-1.1-3-2.9-4.67l-.5-.53c-2.38-2.32-5.2-3.4-8.5-3.4-5.28 0-11.24 2.26-11.92 8.62v.48c0 .96-.76 1.7-1.7 1.7s-1.7-.74-1.7-1.7c-.17-2.5-1.2-3.46-3.15-5.43l-.25-.2c-2.4-2.3-5.2-3.43-8.5-3.43-6.48 0-11.16 3.3-11.92 8.37-.1.92-.94 1.62-1.88 1.53-.93-.1-1.6-.92-1.53-1.84.5-23.04 19.5-41.35 42.54-41.08 23.82 0 42.1 17.65 42.53 41.12v.18c0 .92-.76 1.66-1.7 1.66-.93 0-1.7-.73-1.7-1.65v-.13c0-1.4-1.36-2.8-3.4-4.78-2.38-2.27-5.2-3.4-8.5-3.4-5.2 0-11.5 2.4-11.92 9.05-.08.9-.76 1.6-1.7 1.6zm-40.83-14.06c4.25 0 7.83 1.46 10.8 4.4l.34.25c.86.8 1.54 1.54 2.22 2.4 2.4-4.32 7.4-6.9 13.87-6.9 4.25 0 7.82 1.44 10.88 4.33l.5.52c.78.7 1.38 1.36 2.06 2.15 2.38-4.34 7.4-7.05 13.78-7.05 4.25 0 7.83 1.44 10.9 4.38l.33.35c-3.4-18.18-18.9-31.06-38.46-31.06-18.3-.2-33.78 11.83-38.04 29.66 3.23-2.4 6.72-3.55 10.8-3.42z" stroke="#fff" stroke-opacity="0" stroke-width="2" fill="#fff"/><path d="M1110.62 542.8l1.86-2.85 15.2 9.9-1.85 2.86-15.2-9.9z" stroke="#fff" stroke-opacity="0" stroke-width="1.09" fill="#fff"/><path d="M1178.6 549.53l13.6-9.45h-.02l1.94 2.8-13.57 9.44-1.94-2.8z" stroke="#fff" stroke-opacity="0" stroke-width="1.64" fill="#fff"/><path d="M1165.8 549.97l-3.3-.9 1.7-7.17v-1.7c0-21.6-6.22-36.68-11.9-36.68-5.68 0-11.9 15.08-11.9 36.74v1.6l1.68 7.16-3.27.9-1.7-7.32v-2.44c-.12-25.94 7.78-39.98 15.2-39.98 7.42 0 15.32 14.04 15.32 40.13v1.15c-.03.3-.03.5 0 .75v.5zM1144.93 574.62l-6.24-6.15c-.38-.35-.56-.8-.53-1.32.04-.52.27-.94.68-1.25l7.05-5.32 2.04 2.73-5.44 4.1 4.86 4.74zM1160.48 575.62l-2.04-2.72 5.46-4.1-4.8-4.73 2.38-2.43 6.3 6.14c.67.66.7 1.73.03 2.4l-.2.2z" stroke="#fff" stroke-opacity="0" stroke-width="2" fill="#fff"/><path d="M1147.03 578.6l9-20.4 3.1 1.37-9 20.4-3.1-1.36z" stroke="#fff" stroke-opacity="0" stroke-width=".81" fill="#fff"/><path d="M1174.42 585.25h-42.54c-.92 0-1.7-.77-1.7-1.7v-28.9c0-.95.78-1.72 1.7-1.72h42.54c.92 0 1.7.77 1.7 1.7v28.9c0 .95-.78 1.73-1.7 1.73zm-40.84-3.4h39.14v-25.53h-39.14z" stroke="#fff" stroke-opacity="0" stroke-width="2" fill="#fff"/><path d="M286.64 531.76l-55.76-53.48c-3.2-2.92-8.17-2.92-11.1 0L207.5 489.7l14.55 13.86c.9-.36 2.17-.6 3.45-.6 5.36 0 9.7 4.13 9.7 9.23 0 1.2-.26 2.42-.64 3.4l14.16 13.5c.9-.38 2.3-.62 3.45-.62 5.35 0 9.8 4.13 9.8 9.24 0 5.1-4.45 9.36-9.8 9.36-5.37 0-9.7-4.26-9.7-9.36 0-1.22.24-2.44.63-3.3l-13.28-12.63v33.06c3.2 1.45 5.36 4.74 5.36 8.14 0 5.1-4.32 9.24-9.68 9.24-5.36 0-9.83-4.14-9.83-9.24 0-4 2.54-7.3 6.37-8.75v-33.67c-3.83-1.1-6.38-4.74-6.38-8.63 0-1.22.37-2.43.63-3.28L201.9 494.8l-38.15 36.96c-3.2 2.92-3.2 7.78 0 10.45l55.77 53.13c3.2 3.04 8.16 3.04 10.97 0l55.76-53.12c3.57-2.9 3.57-7.77.38-10.44z" stroke="#000" stroke-opacity="0" fill="#0078d7"/><use xlink:href="#k" transform="matrix(1,0,0,1,131.32791467322375,606.6399945830738) translate(40.599999999999994 14.4)"/><use xlink:href="#l" transform="matrix(1,0,0,1,131.32791467322375,606.6399945830738) translate(68.55 14.4)"/><path d="M329.04 537.24h-39.6v-1h39.6zm175.64 0H395.06v-1h109.62z" stroke="#3a414a" stroke-width=".05" fill="#3a414a"/><path d="M289.45 537.24h-.5l-.03-1h.53z" fill="#3a414a"/><path d="M289.47 537.27h-.54l-.04-1.05h.57zm-.52-1l.03.95h.44v-.95z" stroke="#3a414a" stroke-width=".05" fill="#3a414a"/><path d="M519.45 536.74l-14.27 4.64v-9.27z" fill="#3a414a"/><path d="M521.07 536.74l-16.4 5.33v-10.65zm-15.4 3.95l12.16-3.96-12.15-3.94z" stroke="#3a414a" stroke-width=".05" fill="#3a414a"/><use xlink:href="#m" transform="matrix(1,0,0,1,329.0349365831828,515.4104569999572) translate(0 14.222222222222223)"/><use xlink:href="#n" transform="matrix(1,0,0,1,329.0349365831828,515.4104569999572) translate(0 35.55555555555556)"/><path d="M649.18 534.75h173.66" stroke="#3a414a" fill="none"/><path d="M649.2 535.25h-.52v-1h.5z" stroke="#3a414a" stroke-width=".05" fill="#3a414a"/><path d="M830.08 541.6l-13.55-6.45 6.38-6.72z" stroke="#3a414a" fill="#3a414a"/><path d="M920.72 542.72h151.4" stroke="#3a414a" fill="none"/><path d="M920.74 543.22h-.52v-1h.5z" stroke="#3a414a" stroke-width=".05" fill="#3a414a"/><path d="M1086.87 542.72l-14.26 4.63v-9.27z" stroke="#3a414a" fill="#3a414a"/><path d="M475.24 364.9h52.58v52.57h-52.58V364.9z" stroke="#fff" stroke-opacity="0" stroke-width="2" fill="#3b48cc"/><path d="M515.2 373.65h-27.34-.03c-2.14 0-3.82 1.75-3.82 3.86v7.75c0 2.14 1.76 3.83 3.86 3.83h1.05V408c0 .4.33.7.7.7h23.85c.4 0 .7-.3.7-.7V389.1h1.09c2.14 0 3.82-1.76 3.82-3.86v-7.7-.05c0-2.14-1.75-3.82-3.86-3.82zm-2.5 33.65H490.3v-18.22h22.44zm2.5-19.63h-27.34c-1.23 0-2.24-.87-2.38-2.1h11.92v-1.4h-11.92v-6.66c-.04-1.32 1.05-2.4 2.38-2.45h27.34c1.34 0 2.46 1.06 2.46 2.4V384.17h-13.32v1.4h13.32c-.18 1.23-1.23 2.14-2.46 2.1z" stroke="#fff" stroke-opacity="0" stroke-width="2" fill="#fff"/><path d="M492.82 398.1l4 3.44.93-1.06-3.4-2.93 3.42-3.03-.93-1.05-4.02 3.56c-.16.14-.24.32-.24.53 0 .2.08.4.24.53zM506.27 401.57l4.03-3.5c.16-.15.24-.33.24-.53 0-.22-.08-.4-.24-.54l-4.03-3.5-.92 1.06 3.42 2.98-3.42 3z" stroke="#fff" stroke-opacity="0" stroke-width="2" fill="#fff"/><path d="M498.8 403.5l4.83-11.78 1.3.53L500.1 404l-1.3-.5z" stroke="#fff" stroke-opacity="0" stroke-width=".76" fill="#fff"/><path d="M499.43 384.17h2.8v1.4h-2.8v-1.4z" stroke="#fff" stroke-opacity="0" stroke-width="2" fill="#fff"/><path d="M796.42 730.2h120v120h-120v-120z" stroke="#fff" stroke-opacity="0" stroke-width="2" fill="#3f8624"/><path d="M894.7 794.26c-.45-2.5-3.3-4.25-5.28-5.53-.62-.4-2.3-1.04-2.46-1.6 0-.4 0-.8.15-1.2l1.63-11.46 1.38-10.18c.4-3.05-1.07-5.13-3.6-6.9-5.13-3.6-11.88-5.04-17.94-6-7.97-1.28-14.95-1.53-23-.72-7.28.48-13.34 1.92-20.1 4.8-3.36 1.6-7.88 4.1-7.27 8.4 1.52 13 3.44 25.97 5.2 38.95.77 5.93 1.6 11.86 2.38 17.78.3 2.5 1.7 4.42 4 5.38 4.9 2.64 11.03 3.45 16.62 3.93 7.75.73 14.34.5 22-.95 4.6-.8 13.2-2.25 13.96-8.02.92-7.13 1.92-14.26 2.84-21.4l.38-2.15c2.6.64 10.05 2 9.13-3.12zm-40.63-40.86c9.66 0 20.63 1.12 29.2 5.85 1.4.72 4.46 2.32 3.54 4.32-.9 1.93-3.82 2.9-5.6 3.6-2.6.97-4.97 1.6-7.73 2.17-11.96 2.4-22.54 2.65-34.66.72-5.43-.56-9.95-1.92-14.86-4.32-1.15-.72-3.07-1.85-2.53-3.45.4-.9 1-1.53 1.85-2 3.76-2.4 7.2-3.86 11.58-4.66 6.6-1.6 12.42-2.32 19.24-2.24zm25.15 67.45c-.3 1.85-3.38 2.8-4.83 3.3-3.23 1.1-6.07 1.75-9.44 2.15-7.44.96-13.88.96-21.4 0-4.67-.4-8.58-1.44-12.8-3.52-1.15-.48-1.84-1.52-1.9-2.73-1.62-12.73-3.4-25.4-5.15-38.05l-1.83-13.78c3.83 2.08 7.36 3.37 11.65 4.1 4.68.95 8.6 1.43 13.34 1.75 9.2.64 17.1.24 26.23-1.44 4.8-.73 8.8-2.1 13.1-4.4l-3.38 25.06c-8.6-2.8-15.64-5.6-23.7-9.54-.37-.16-.68-.32-1-.48-.45-.32-.3-.16-.52-.64-.38-.96-.46-1.6-1.3-2.4-.77-.56-1.62-.8-2.53-.72-2 .08-3.53 1.84-3.38 3.84.14 1.92 1.9 3.45 3.9 3.3.54-.1 1-.25 1.6-.5.63-.15.63-.15 1.24.17 8.2 4 15.33 6.96 24 9.85 1.22.4 1.22 0 1.22 1.04-.08.8-.15 1.52-.3 2.32l-1 7.62zm-24.7-37.9c0 .5-.6.4-.75.17-.24-.32.76-.72.76-.16zm31.52 11.23l.46-3.53c1.6.96 4.3 2.33 5.06 4.1-1.6.63-4.06-.17-5.52-.57z" stroke="#fff" stroke-opacity="0" stroke-width="2" fill="#fff"/><use xlink:href="#o" transform="matrix(1,0,0,1,766.4173878120686,859.1976284585265) translate(5.524691358024683 17.77777777777778)"/><use xlink:href="#p" transform="matrix(1,0,0,1,766.4173878120686,859.1976284585265) translate(38.85802469135802 17.77777777777778)"/><use xlink:href="#q" transform="matrix(1,0,0,1,766.4173878120686,859.1976284585265) translate(70.89506172839506 17.77777777777778)"/><use xlink:href="#r" transform="matrix(1,0,0,1,766.4173878120686,859.1976284585265) translate(126.32716049382717 17.77777777777778)"/><path d="M856.92 713.8h-1v-50.9h1zm0-72.24h-1v-34.54h1z" stroke="#3a414a" stroke-width=".05" fill="#3a414a"/><path d="M856.92 607.04h-1v-.52h1z" fill="#3a414a"/><path d="M856.94 607.06h-1.05v-.56h1.04zm-1-.5v.45h.95v-.45z" stroke="#3a414a" stroke-width=".05" fill="#3a414a"/><path d="M856.42 728.58l-4.64-14.27h9.27z" fill="#3a414a"/><path d="M856.42 730.2l-5.33-16.4h10.64zm-3.95-15.4l3.95 12.16 3.94-12.15z" stroke="#3a414a" stroke-width=".05" fill="#3a414a"/><use xlink:href="#s" transform="matrix(1,0,0,1,779.5778816392292,641.5599472990775) translate(0 14.222222222222223)"/><use xlink:href="#t" transform="matrix(1,0,0,1,779.5778816392292,641.5599472990775) translate(105.38271604938274 14.222222222222223)"/><path d="M1488.6 292.67v101.76h-95.75V292.67h95.76m9.13-9.12h-114v120h114v-120z" fill="#9d5025"/><path d="M1488.6 292.7v96.03h-95.75V292.7h95.76m9.13-9.15h-114v114.32h114V283.56z" fill="#f58536"/><path d="M1398.18 301.47h40.44v22.4h-40.45v-22.4zM1442.83 301.47h40.43v22.4h-40.43v-22.4z" fill="#9d5025"/><path d="M1398.18 298.08h40.44v22.4h-40.45v-22.4z" fill="#f58536"/><path d="M1400.66 299.9h2.16v18.8h-2.16v-18.8zM1406.22 299.9h2.17v18.8h-2.18v-18.8zM1411.76 299.9h2.17v18.8h-2.17v-18.8zM1417.34 299.9h2.16v18.8h-2.16v-18.8zM1422.88 299.9h2.16v18.8h-2.16v-18.8zM1428.42 299.9h2.16v18.8h-2.16v-18.8zM1433.97 299.9h2.17v18.8h-2.17v-18.8z" fill="#fff"/><path d="M1442.83 298.08h40.43v22.4h-40.43v-22.4z" fill="#f58536"/><path d="M1445.34 299.9h2.16v18.8h-2.16v-18.8zM1450.88 299.9h2.16v18.8h-2.16v-18.8zM1456.42 299.9h2.16v18.8h-2.16v-18.8zM1461.98 299.9h2.16v18.8h-2.16v-18.8zM1467.52 299.9h2.17v18.8h-2.18v-18.8zM1473.07 299.9h2.17v18.8h-2.17v-18.8zM1478.62 299.9h2.17v18.8h-2.18v-18.8z" fill="#fff"/><path d="M1398.18 331.2h40.44v22.4h-40.45v-22.4zM1442.83 331.2h40.43v22.4h-40.43v-22.4z" fill="#9d5025"/><path d="M1398.18 327.82h40.44v22.4h-40.45v-22.4z" fill="#f58536"/><path d="M1400.66 329.62h2.16v18.8h-2.16v-18.8zM1406.22 329.62h2.17v18.8h-2.18v-18.8zM1411.76 329.62h2.17v18.8h-2.17v-18.8zM1417.34 329.62h2.16v18.8h-2.16v-18.8zM1422.88 329.62h2.16v18.8h-2.16v-18.8zM1428.42 329.62h2.16v18.8h-2.16v-18.8zM1433.97 329.62h2.17v18.8h-2.17v-18.8z" fill="#fff"/><path d="M1442.83 327.82h40.43v22.4h-40.43v-22.4z" fill="#f58536"/><path d="M1445.34 329.62h2.16v18.8h-2.16v-18.8zM1450.88 329.62h2.16v18.8h-2.16v-18.8zM1456.42 329.62h2.16v18.8h-2.16v-18.8zM1461.98 329.62h2.16v18.8h-2.16v-18.8zM1467.52 329.62h2.17v18.8h-2.18v-18.8zM1473.07 329.62h2.17v18.8h-2.17v-18.8zM1478.62 329.62h2.17v18.8h-2.18v-18.8z" fill="#fff"/><path d="M1398.18 360.93h40.44v22.4h-40.45v-22.4zM1442.83 360.93h40.43v22.4h-40.43v-22.4z" fill="#9d5025"/><path d="M1398.18 357.54h40.44v22.4h-40.45v-22.4z" fill="#f58536"/><path d="M1400.66 359.34h2.16v18.8h-2.16v-18.8zM1406.22 359.34h2.17v18.8h-2.18v-18.8zM1411.76 359.34h2.17v18.8h-2.17v-18.8zM1417.34 359.34h2.16v18.8h-2.16v-18.8zM1422.88 359.34h2.16v18.8h-2.16v-18.8zM1428.42 359.34h2.16v18.8h-2.16v-18.8zM1433.97 359.34h2.17v18.8h-2.17v-18.8z" fill="#fff"/><path d="M1442.83 357.54h40.43v22.4h-40.43v-22.4z" fill="#f58536"/><path d="M1445.34 359.34h2.16v18.8h-2.16v-18.8zM1450.88 359.34h2.16v18.8h-2.16v-18.8zM1456.42 359.34h2.16v18.8h-2.16v-18.8zM1461.98 359.34h2.16v18.8h-2.16v-18.8zM1467.52 359.34h2.17v18.8h-2.18v-18.8zM1473.07 359.34h2.17v18.8h-2.17v-18.8zM1478.62 359.34h2.17v18.8h-2.18v-18.8z" fill="#fff"/><use xlink:href="#u" transform="matrix(1,0,0,1,1383.7297592055893,403.55072463764384) translate(33.60493827160494 17.77777777777778)"/><use xlink:href="#v" transform="matrix(1,0,0,1,1383.7297592055893,403.55072463764384) translate(20.672839506172835 44.44444444444444)"/><path d="M1217.6 542.72h12.72m12.72 0h25.44m12.72 0h12.72l.93-.08.92-.22.87-.36.8-.5.72-.6.6-.72.5-.8.36-.87.22-.9.08-.95v-14.77m0-14.76v-29.54m0-14.76v-29.53m0-14.76V389.1m0-14.76v-14.77l.07-.94.2-.9.37-.87.5-.8.6-.72.72-.6.8-.5.86-.36.92-.2.94-.1h19.06m19.07 0h19.06" stroke="#3a414a" stroke-width="3" fill="none"/><path d="M1217.64 544.22h-1.54v-3h1.54z" stroke="#3a414a" stroke-width=".05" fill="#3a414a"/><path d="M1378.88 353.55l-14.27 4.64v-9.28z" stroke="#3a414a" stroke-width="3" fill="#3a414a"/><path d="M1383.73 653.6h120v120h-120v-120z" stroke="#fff" stroke-opacity="0" stroke-width="2" fill="#3f8624"/><path d="M1482.02 717.67c-.46-2.48-3.3-4.24-5.3-5.52-.6-.4-2.3-1.05-2.44-1.6 0-.4 0-.8.15-1.2l1.6-11.47 1.4-10.17c.37-3.03-1.1-5.12-3.62-6.88-5.12-3.6-11.87-5.05-17.93-6-7.97-1.3-14.95-1.53-23-.73-7.28.47-13.34 1.9-20.08 4.8-3.4 1.6-7.9 4.08-7.3 8.4 1.54 13 3.45 25.97 5.22 38.95.76 5.92 1.6 11.85 2.37 17.78.3 2.48 1.68 4.4 3.98 5.37 4.9 2.64 11.04 3.44 16.64 3.92 7.74.72 14.33.48 22-.96 4.6-.8 13.2-2.24 13.95-8 .92-7.14 1.92-14.27 2.84-21.4l.4-2.16c2.6.64 10.04 2 9.12-3.13zm-40.64-40.85c9.66 0 20.63 1.12 29.2 5.84 1.4.73 4.46 2.33 3.54 4.33-.92 1.9-3.83 2.87-5.6 3.6-2.6.96-4.98 1.6-7.74 2.16-11.96 2.4-22.54 2.64-34.65.72-5.45-.56-9.97-1.92-14.88-4.33-1.15-.72-3.06-1.84-2.53-3.44.4-.87 1-1.5 1.84-2 3.76-2.4 7.2-3.84 11.58-4.64 6.6-1.6 12.42-2.32 19.24-2.24zm25.15 67.45c-.3 1.84-3.37 2.8-4.83 3.28-3.22 1.13-6.06 1.77-9.43 2.17-7.44.96-13.88.96-21.4 0-4.67-.4-8.58-1.44-12.8-3.53-1.14-.5-1.83-1.53-1.9-2.73-1.62-12.74-3.38-25.4-5.15-38.05l-1.84-13.78c3.84 2.08 7.36 3.36 11.66 4.08 4.67.96 8.58 1.44 13.34 1.76 9.2.65 17.1.25 26.22-1.44 4.83-.72 8.8-2.08 13.1-4.4l-3.37 25.07c-8.58-2.8-15.64-5.6-23.7-9.52-.37-.16-.68-.32-.98-.48-.46-.32-.3-.16-.54-.64-.37-.96-.45-1.6-1.3-2.4-.76-.57-1.6-.8-2.52-.73-2 .08-3.53 1.85-3.38 3.85.16 1.92 1.92 3.44 3.9 3.28.55-.08 1-.24 1.62-.48.62-.16.62-.16 1.23.16 8.2 4 15.33 6.97 24 9.86 1.22.4 1.22 0 1.22 1.04-.07.8-.15 1.52-.3 2.32l-1 7.6zm-24.7-37.9c0 .5-.6.4-.75.17-.23-.32.76-.72.76-.16zm31.53 11.22l.46-3.53c1.6.96 4.3 2.32 5.06 4.08-1.62.64-4.07-.16-5.53-.56z" stroke="#fff" stroke-opacity="0" stroke-width="2" fill="#fff"/><g><use xlink:href="#w" transform="matrix(1,0,0,1,1353.7297592055893,782.6139657444005) translate(14.104938271604937 17.77777777777778)"/><use xlink:href="#x" transform="matrix(1,0,0,1,1353.7297592055893,782.6139657444005) translate(97.99382716049382 17.77777777777778)"/></g><path d="M1217.6 542.72h12.72m12.72 0h25.44m12.72 0h12.72l.93.07.92.2.87.37.8.5.72.6.6.72.5.8.36.86.22.92.08.94v13.24m0 13.24v26.48m0 13.25v26.48m0 13.25v26.48m0 13.24v13.24l.07.95.2.92.37.87.5.8.6.72.72.6.8.5.86.36.92.22.94.07h19.06m19.07 0h19.06" stroke="#3a414a" stroke-width="3" fill="none"/><path d="M1217.64 544.22h-1.54v-3h1.54z" stroke="#3a414a" stroke-width=".05" fill="#3a414a"/><path d="M1378.88 713.6l-14.27 4.65v-9.27z" stroke="#3a414a" stroke-width="3" fill="#3a414a"/><path d="M1393.27 482.72h120v120h-120v-120z" stroke="#fff" stroke-opacity="0" stroke-width="2" fill="#d86613"/><path d="M1432.93 540.96c.14.14.23.27.4.36.23.22.46.4.72.58l.18.13.8.4.5.23h.38l.4.18c.76.27 1.56.58 2.5.9l1.48.4.76.22c4.2 1.02 7.9 1.47 12.23 1.43 6.6.12 12.2-.95 18.24-3.5 2.6-1.2 4.13-3.57 4.17-6.43V512.9c0-.97-.54-1.82-1.43-2.27l-19.9-9.24c-.66-.37-1.43-.37-2.1 0l-19.93 9.23c-.9.45-1.43 1.3-1.43 2.28v23.06c0 1.8.6 3.3 1.75 4.7.1.12.18.2.3.3zm8.16.23l-1.36-.42c-.85-.26-1.57-.53-2.24-.75l-.58-.27-.54-.23c-.18-.1-.36-.17-.54-.26l-.4-.32-.18-.22-.13-.13-.14-.14c-.63-.76-.95-1.56-.95-2.54v-21.1l17.6 8.28v19.56c-3.5-.04-6.44-.45-9.85-1.25zm29.1-1.7c-5.1 2.18-9.8 3.16-15.36 3.2v-19.3l17.6-8.03v20.5c.05 1.6-.8 2.95-2.23 3.62zm-16.93-35.12l17.7 8.26-17.43 7.82-.1-.1-17.2-7.98z" stroke="#fff" stroke-opacity="0" stroke-width="2" fill="#fff"/><path d="M1480.9 527l-.84 3.07c7.16 2.13 11.65 5.14 11.65 7.85 0 5.3-15.8 11.2-38.43 11.2s-38.44-5.9-38.44-11.2c0-2.7 4.5-5.72 11.65-7.85l-.83-3.06c-9 2.64-13.98 6.54-13.98 10.92 0 9.34 21.47 14.4 41.6 14.4 20.14 0 41.6-5.06 41.6-14.4 0-4.38-5-8.26-13.97-10.9zM1480.8 557.35l-7.43-3.2c-.6-.3-1.2-.3-1.8 0l-7.6 3.26c-.7.38-1.1 1-1.1 1.77v8.25l-7.1-3.1c-.6-.3-1.2-.3-1.8 0l-7.17 3.1v-8.28c0-.8-.44-1.5-1.14-1.8l-7.5-3.2c-.54-.28-1.2-.28-1.8 0l-7.6 3.27c-.7.38-1.1 1-1.1 1.77v9.74c0 .83.45 1.5 1.2 1.83l7.45 3.18h.17c.28.13.5.2.82.2.26 0 .53-.04.75-.2l7.23-3.08v8.25c0 .8.43 1.45 1.14 1.8l7.44 3.2h.1c.28.12.56.18.88.18.27 0 .54-.06.82-.18l7.6-3.27c.7-.37 1.1-1 1.14-1.8v-8.18l7.07 3.1h.2c.3.1.56.17.88.2.28-.03.5-.1.7-.2l7.67-3.2c.7-.33 1.1-1 1.1-1.75v-9.83c0-.8-.45-1.5-1.2-1.8zm-8.36-.15l4.35 1.88-4.08 1.67-4.24-1.82zm-17.6 10.22l4.35 1.85-4.1 1.6-4.23-1.75zm-17.6-10.22l4.34 1.88-4.07 1.6-4.23-1.75zm-6.42 4.18l4.84 2.04v6.73l-4.84-2.06zm8.05 8.74v-6.4l4.78-1.97v6.4zm9.56 1.46l4.84 2.06v6.67l-4.84-2.05zm8 8.76v-6.43l4.82-1.96v6.4zm9.6-18.96l4.8 2.04v6.73l-4.8-2.06zm8 8.77v-6.4l4.83-2v6.4z" stroke="#fff" stroke-opacity="0" stroke-width="2" fill="#fff"/><g><use xlink:href="#g" transform="matrix(1,0,0,1,1363.272578704939,611.7180500658762) translate(23.827160493827165 17.77777777777778)"/><use xlink:href="#y" transform="matrix(1,0,0,1,1363.272578704939,611.7180500658762) translate(79.75308641975309 17.77777777777778)"/></g><path d="M1217.6 542.72h17.23m17.23 0h34.45m17.24 0h34.46m17.22 0h17.23" stroke="#3a414a" stroke-width="3" fill="none"/><path d="M1217.64 544.22h-1.54v-3h1.54z" stroke="#3a414a" stroke-width=".05" fill="#3a414a"/><path d="M1388.42 542.72l-14.27 4.63v-9.27z" stroke="#3a414a" stroke-width="3" fill="#3a414a"/><defs><path fill="#232f3e" d="M205 0l-28-72H64L36 0H1l101-248h38L239 0h-34zm-38-99l-47-123c-12 45-31 82-46 123h93" id="z"/><path fill="#232f3e" d="M266 0h-40l-56-210L115 0H75L2-248h35L96-30l15-64 43-154h32l59 218 59-218h35" id="A"/><path fill="#232f3e" d="M185-189c-5-48-123-54-124 2 14 75 158 14 163 119 3 78-121 87-175 55-17-10-28-26-33-46l33-7c5 56 141 63 141-1 0-78-155-14-162-118-5-82 145-84 179-34 5 7 8 16 11 25" id="B"/><g id="a"><use transform="matrix(0.05,0,0,0.05,0,0)" xlink:href="#z"/><use transform="matrix(0.05,0,0,0.05,11.35,0)" xlink:href="#A"/><use transform="matrix(0.05,0,0,0.05,28.299999999999997,0)" xlink:href="#B"/></g><path fill="#232f3e" d="M212-179c-10-28-35-45-73-45-59 0-87 40-87 99 0 60 29 101 89 101 43 0 62-24 78-52l27 14C228-24 195 4 139 4 59 4 22-46 18-125c-6-104 99-153 187-111 19 9 31 26 39 46" id="C"/><path fill="#232f3e" d="M24 0v-261h32V0H24" id="D"/><path fill="#232f3e" d="M100-194c62-1 85 37 85 99 1 63-27 99-86 99S16-35 15-95c0-66 28-99 85-99zM99-20c44 1 53-31 53-75 0-43-8-75-51-75s-53 32-53 75 10 74 51 75" id="E"/><path fill="#232f3e" d="M84 4C-5 8 30-112 23-190h32v120c0 31 7 50 39 49 72-2 45-101 50-169h31l1 190h-30c-1-10 1-25-2-33-11 22-28 36-60 37" id="F"/><path fill="#232f3e" d="M85-194c31 0 48 13 60 33l-1-100h32l1 261h-30c-2-10 0-23-3-31C134-8 116 4 85 4 32 4 16-35 15-94c0-66 23-100 70-100zm9 24c-40 0-46 34-46 75 0 40 6 74 45 74 42 0 51-32 51-76 0-42-9-74-50-73" id="G"/><g id="b"><use transform="matrix(0.05,0,0,0.05,0,0)" xlink:href="#C"/><use transform="matrix(0.05,0,0,0.05,12.950000000000001,0)" xlink:href="#D"/><use transform="matrix(0.05,0,0,0.05,16.900000000000002,0)" xlink:href="#E"/><use transform="matrix(0.05,0,0,0.05,26.900000000000002,0)" xlink:href="#F"/><use transform="matrix(0.05,0,0,0.05,36.900000000000006,0)" xlink:href="#G"/></g><path fill="#5a6c86" d="M30-248c87 1 191-15 191 75 0 78-77 80-158 76V0H30v-248zm33 125c57 0 124 11 124-50 0-59-68-47-124-48v98" id="H"/><path fill="#5a6c86" d="M24-231v-30h32v30H24zM24 0v-190h32V0H24" id="I"/><path fill="#5a6c86" d="M115-194c55 1 70 41 70 98S169 2 115 4C84 4 66-9 55-30l1 105H24l-1-265h31l2 30c10-21 28-34 59-34zm-8 174c40 0 45-34 45-75s-6-73-45-74c-42 0-51 32-51 76 0 43 10 73 51 73" id="J"/><path fill="#5a6c86" d="M100-194c63 0 86 42 84 106H49c0 40 14 67 53 68 26 1 43-12 49-29l28 8c-11 28-37 45-77 45C44 4 14-33 15-96c1-61 26-98 85-98zm52 81c6-60-76-77-97-28-3 7-6 17-6 28h103" id="K"/><path fill="#5a6c86" d="M24 0v-261h32V0H24" id="L"/><path fill="#5a6c86" d="M117-194c89-4 53 116 60 194h-32v-121c0-31-8-49-39-48C34-167 62-67 57 0H25l-1-190h30c1 10-1 24 2 32 11-22 29-35 61-36" id="M"/><g id="c"><use transform="matrix(0.05,0,0,0.05,0,0)" xlink:href="#H"/><use transform="matrix(0.05,0,0,0.05,12,0)" xlink:href="#I"/><use transform="matrix(0.05,0,0,0.05,15.949999999999998,0)" xlink:href="#J"/><use transform="matrix(0.05,0,0,0.05,25.950000000000003,0)" xlink:href="#K"/><use transform="matrix(0.05,0,0,0.05,35.95,0)" xlink:href="#L"/><use transform="matrix(0.05,0,0,0.05,39.900000000000006,0)" xlink:href="#I"/><use transform="matrix(0.05,0,0,0.05,43.85000000000001,0)" xlink:href="#M"/><use transform="matrix(0.05,0,0,0.05,53.85,0)" xlink:href="#K"/></g><path fill="#5a6c86" d="M100-194c62-1 85 37 85 99 1 63-27 99-86 99S16-35 15-95c0-66 28-99 85-99zM99-20c44 1 53-31 53-75 0-43-8-75-51-75s-53 32-53 75 10 74 51 75" id="N"/><path fill="#5a6c86" d="M135-143c-3-34-86-38-87 0 15 53 115 12 119 90S17 21 10-45l28-5c4 36 97 45 98 0-10-56-113-15-118-90-4-57 82-63 122-42 12 7 21 19 24 35" id="O"/><path fill="#5a6c86" d="M115-194c53 0 69 39 70 98 0 66-23 100-70 100C84 3 66-7 56-30L54 0H23l1-261h32v101c10-23 28-34 59-34zm-8 174c40 0 45-34 45-75 0-40-5-75-45-74-42 0-51 32-51 76 0 43 10 73 51 73" id="P"/><g id="d"><use transform="matrix(0.05,0,0,0.05,0,0)" xlink:href="#H"/><use transform="matrix(0.05,0,0,0.05,12,0)" xlink:href="#N"/><use transform="matrix(0.05,0,0,0.05,22,0)" xlink:href="#O"/><use transform="matrix(0.05,0,0,0.05,31,0)" xlink:href="#O"/><use transform="matrix(0.05,0,0,0.05,40,0)" xlink:href="#I"/><use transform="matrix(0.05,0,0,0.05,43.95,0)" xlink:href="#P"/><use transform="matrix(0.05,0,0,0.05,53.95,0)" xlink:href="#L"/><use transform="matrix(0.05,0,0,0.05,57.900000000000006,0)" xlink:href="#K"/></g><path fill="#5a6c86" d="M30 0v-248h187v28H63v79h144v27H63v87h162V0H30" id="Q"/><path fill="#5a6c86" d="M108 0H70L1-190h34L89-25l56-165h34" id="R"/><path fill="#5a6c86" d="M114-163C36-179 61-72 57 0H25l-1-190h30c1 12-1 29 2 39 6-27 23-49 58-41v29" id="S"/><path fill="#5a6c86" d="M210-169c-67 3-38 105-44 169h-31v-121c0-29-5-50-35-48C34-165 62-65 56 0H25l-1-190h30c1 10-1 24 2 32 10-44 99-50 107 0 11-21 27-35 58-36 85-2 47 119 55 194h-31v-121c0-29-5-49-35-48" id="T"/><path fill="#5a6c86" d="M59-47c-2 24 18 29 38 22v24C64 9 27 4 27-40v-127H5v-23h24l9-43h21v43h35v23H59v120" id="U"/><g id="e"><use transform="matrix(0.05,0,0,0.05,0,0)" xlink:href="#Q"/><use transform="matrix(0.05,0,0,0.05,12,0)" xlink:href="#M"/><use transform="matrix(0.05,0,0,0.05,22,0)" xlink:href="#R"/><use transform="matrix(0.05,0,0,0.05,31,0)" xlink:href="#I"/><use transform="matrix(0.05,0,0,0.05,34.95,0)" xlink:href="#S"/><use transform="matrix(0.05,0,0,0.05,40.900000000000006,0)" xlink:href="#N"/><use transform="matrix(0.05,0,0,0.05,50.900000000000006,0)" xlink:href="#M"/><use transform="matrix(0.05,0,0,0.05,60.900000000000006,0)" xlink:href="#T"/><use transform="matrix(0.05,0,0,0.05,75.85000000000001,0)" xlink:href="#K"/><use transform="matrix(0.05,0,0,0.05,85.85000000000001,0)" xlink:href="#M"/><use transform="matrix(0.05,0,0,0.05,95.85000000000001,0)" xlink:href="#U"/></g><path fill="#5a6c86" d="M127-220V0H93v-220H8v-28h204v28h-85" id="V"/><path fill="#5a6c86" d="M141-36C126-15 110 5 73 4 37 3 15-17 15-53c-1-64 63-63 125-63 3-35-9-54-41-54-24 1-41 7-42 31l-33-3c5-37 33-52 76-52 45 0 72 20 72 64v82c-1 20 7 32 28 27v20c-31 9-61-2-59-35zM48-53c0 20 12 33 32 33 41-3 63-29 60-74-43 2-92-5-92 41" id="W"/><path fill="#5a6c86" d="M177-190C167-65 218 103 67 71c-23-6-38-20-44-43l32-5c15 47 100 32 89-28v-30C133-14 115 1 83 1 29 1 15-40 15-95c0-56 16-97 71-98 29-1 48 16 59 35 1-10 0-23 2-32h30zM94-22c36 0 50-32 50-73 0-42-14-75-50-75-39 0-46 34-46 75s6 73 46 73" id="X"/><g id="f"><use transform="matrix(0.05,0,0,0.05,0,0)" xlink:href="#V"/><use transform="matrix(0.05,0,0,0.05,8.950000000000001,0)" xlink:href="#W"/><use transform="matrix(0.05,0,0,0.05,18.950000000000003,0)" xlink:href="#S"/><use transform="matrix(0.05,0,0,0.05,24.900000000000002,0)" xlink:href="#X"/><use transform="matrix(0.05,0,0,0.05,34.900000000000006,0)" xlink:href="#K"/><use transform="matrix(0.05,0,0,0.05,44.900000000000006,0)" xlink:href="#U"/><use transform="matrix(0.05,0,0,0.05,49.900000000000006,0)" xlink:href="#O"/></g><path fill="#3a414a" d="M205 0l-28-72H64L36 0H1l101-248h38L239 0h-34zm-38-99l-47-123c-12 45-31 82-46 123h93" id="Y"/><path fill="#3a414a" d="M266 0h-40l-56-210L115 0H75L2-248h35L96-30l15-64 43-154h32l59 218 59-218h35" id="Z"/><path fill="#3a414a" d="M185-189c-5-48-123-54-124 2 14 75 158 14 163 119 3 78-121 87-175 55-17-10-28-26-33-46l33-7c5 56 141 63 141-1 0-78-155-14-162-118-5-82 145-84 179-34 5 7 8 16 11 25" id="aa"/><g id="g"><use transform="matrix(0.06172839506172839,0,0,0.06172839506172839,0,0)" xlink:href="#Y"/><use transform="matrix(0.06172839506172839,0,0,0.06172839506172839,14.012345679012345,0)" xlink:href="#Z"/><use transform="matrix(0.06172839506172839,0,0,0.06172839506172839,34.938271604938265,0)" xlink:href="#aa"/></g><path fill="#3a414a" d="M212-179c-10-28-35-45-73-45-59 0-87 40-87 99 0 60 29 101 89 101 43 0 62-24 78-52l27 14C228-24 195 4 139 4 59 4 22-46 18-125c-6-104 99-153 187-111 19 9 31 26 39 46" id="ab"/><path fill="#3a414a" d="M100-194c62-1 85 37 85 99 1 63-27 99-86 99S16-35 15-95c0-66 28-99 85-99zM99-20c44 1 53-31 53-75 0-43-8-75-51-75s-53 32-53 75 10 74 51 75" id="ac"/><path fill="#3a414a" d="M85-194c31 0 48 13 60 33l-1-100h32l1 261h-30c-2-10 0-23-3-31C134-8 116 4 85 4 32 4 16-35 15-94c0-66 23-100 70-100zm9 24c-40 0-46 34-46 75 0 40 6 74 45 74 42 0 51-32 51-76 0-42-9-74-50-73" id="ad"/><path fill="#3a414a" d="M100-194c63 0 86 42 84 106H49c0 40 14 67 53 68 26 1 43-12 49-29l28 8c-11 28-37 45-77 45C44 4 14-33 15-96c1-61 26-98 85-98zm52 81c6-60-76-77-97-28-3 7-6 17-6 28h103" id="ae"/><path fill="#3a414a" d="M115-194c53 0 69 39 70 98 0 66-23 100-70 100C84 3 66-7 56-30L54 0H23l1-261h32v101c10-23 28-34 59-34zm-8 174c40 0 45-34 45-75 0-40-5-75-45-74-42 0-51 32-51 76 0 43 10 73 51 73" id="af"/><path fill="#3a414a" d="M84 4C-5 8 30-112 23-190h32v120c0 31 7 50 39 49 72-2 45-101 50-169h31l1 190h-30c-1-10 1-25-2-33-11 22-28 36-60 37" id="ag"/><path fill="#3a414a" d="M24-231v-30h32v30H24zM24 0v-190h32V0H24" id="ah"/><path fill="#3a414a" d="M24 0v-261h32V0H24" id="ai"/><g id="h"><use transform="matrix(0.06172839506172839,0,0,0.06172839506172839,0,0)" xlink:href="#ab"/><use transform="matrix(0.06172839506172839,0,0,0.06172839506172839,15.987654320987653,0)" xlink:href="#ac"/><use transform="matrix(0.06172839506172839,0,0,0.06172839506172839,28.333333333333332,0)" xlink:href="#ad"/><use transform="matrix(0.06172839506172839,0,0,0.06172839506172839,40.67901234567901,0)" xlink:href="#ae"/><use transform="matrix(0.06172839506172839,0,0,0.06172839506172839,53.02469135802469,0)" xlink:href="#af"/><use transform="matrix(0.06172839506172839,0,0,0.06172839506172839,65.37037037037037,0)" xlink:href="#ag"/><use transform="matrix(0.06172839506172839,0,0,0.06172839506172839,77.71604938271605,0)" xlink:href="#ah"/><use transform="matrix(0.06172839506172839,0,0,0.06172839506172839,82.5925925925926,0)" xlink:href="#ai"/><use transform="matrix(0.06172839506172839,0,0,0.06172839506172839,87.46913580246914,0)" xlink:href="#ad"/></g><path fill="#3a414a" d="M210-169c-67 3-38 105-44 169h-31v-121c0-29-5-50-35-48C34-165 62-65 56 0H25l-1-190h30c1 10-1 24 2 32 10-44 99-50 107 0 11-21 27-35 58-36 85-2 47 119 55 194h-31v-121c0-29-5-49-35-48" id="aj"/><path fill="#3a414a" d="M59-47c-2 24 18 29 38 22v24C64 9 27 4 27-40v-127H5v-23h24l9-43h21v43h35v23H59v120" id="ak"/><g id="i"><use transform="matrix(0.06172839506172839,0,0,0.06172839506172839,0,0)" xlink:href="#ab"/><use transform="matrix(0.06172839506172839,0,0,0.06172839506172839,15.987654320987653,0)" xlink:href="#ac"/><use transform="matrix(0.06172839506172839,0,0,0.06172839506172839,28.333333333333332,0)" xlink:href="#ad"/><use transform="matrix(0.06172839506172839,0,0,0.06172839506172839,40.67901234567901,0)" xlink:href="#ae"/><use transform="matrix(0.06172839506172839,0,0,0.06172839506172839,53.02469135802469,0)" xlink:href="#ab"/><use transform="matrix(0.06172839506172839,0,0,0.06172839506172839,69.01234567901234,0)" xlink:href="#ac"/><use transform="matrix(0.06172839506172839,0,0,0.06172839506172839,81.35802469135803,0)" xlink:href="#aj"/><use transform="matrix(0.06172839506172839,0,0,0.06172839506172839,99.81481481481481,0)" xlink:href="#aj"/><use transform="matrix(0.06172839506172839,0,0,0.06172839506172839,118.2716049382716,0)" xlink:href="#ah"/><use transform="matrix(0.06172839506172839,0,0,0.06172839506172839,123.14814814814814,0)" xlink:href="#ak"/></g><path fill="#3a414a" d="M30-248c118-7 216 8 213 122C240-48 200 0 122 0H30v-248zM63-27c89 8 146-16 146-99s-60-101-146-95v194" id="al"/><path fill="#3a414a" d="M115-194c55 1 70 41 70 98S169 2 115 4C84 4 66-9 55-30l1 105H24l-1-265h31l2 30c10-21 28-34 59-34zm-8 174c40 0 45-34 45-75s-6-73-45-74c-42 0-51 32-51 76 0 43 10 73 51 73" id="am"/><path fill="#3a414a" d="M179-190L93 31C79 59 56 82 12 73V49c39 6 53-20 64-50L1-190h34L92-34l54-156h33" id="an"/><g id="j"><use transform="matrix(0.06172839506172839,0,0,0.06172839506172839,0,0)" xlink:href="#ab"/><use transform="matrix(0.06172839506172839,0,0,0.06172839506172839,15.987654320987653,0)" xlink:href="#ac"/><use transform="matrix(0.06172839506172839,0,0,0.06172839506172839,28.333333333333332,0)" xlink:href="#ad"/><use transform="matrix(0.06172839506172839,0,0,0.06172839506172839,40.67901234567901,0)" xlink:href="#ae"/><use transform="matrix(0.06172839506172839,0,0,0.06172839506172839,53.02469135802469,0)" xlink:href="#al"/><use transform="matrix(0.06172839506172839,0,0,0.06172839506172839,69.01234567901234,0)" xlink:href="#ae"/><use transform="matrix(0.06172839506172839,0,0,0.06172839506172839,81.35802469135803,0)" xlink:href="#am"/><use transform="matrix(0.06172839506172839,0,0,0.06172839506172839,93.70370370370371,0)" xlink:href="#ai"/><use transform="matrix(0.06172839506172839,0,0,0.06172839506172839,98.58024691358025,0)" xlink:href="#ac"/><use transform="matrix(0.06172839506172839,0,0,0.06172839506172839,110.92592592592594,0)" xlink:href="#an"/></g><path d="M143 4C61 4 22-44 18-125c-5-107 100-154 193-111 17 8 29 25 37 43l-32 9c-13-25-37-40-76-40-61 0-88 39-88 99 0 61 29 100 91 101 35 0 62-11 79-27v-45h-74v-28h105v86C228-13 192 4 143 4" id="ao"/><path d="M24-231v-30h32v30H24zM24 0v-190h32V0H24" id="ap"/><path d="M59-47c-2 24 18 29 38 22v24C64 9 27 4 27-40v-127H5v-23h24l9-43h21v43h35v23H59v120" id="aq"/><g id="k"><use transform="matrix(0.05,0,0,0.05,0,0)" xlink:href="#ao"/><use transform="matrix(0.05,0,0,0.05,14,0)" xlink:href="#ap"/><use transform="matrix(0.05,0,0,0.05,17.95,0)" xlink:href="#aq"/></g><path d="M114-163C36-179 61-72 57 0H25l-1-190h30c1 12-1 29 2 39 6-27 23-49 58-41v29" id="ar"/><path d="M100-194c63 0 86 42 84 106H49c0 40 14 67 53 68 26 1 43-12 49-29l28 8c-11 28-37 45-77 45C44 4 14-33 15-96c1-61 26-98 85-98zm52 81c6-60-76-77-97-28-3 7-6 17-6 28h103" id="as"/><path d="M115-194c55 1 70 41 70 98S169 2 115 4C84 4 66-9 55-30l1 105H24l-1-265h31l2 30c10-21 28-34 59-34zm-8 174c40 0 45-34 45-75s-6-73-45-74c-42 0-51 32-51 76 0 43 10 73 51 73" id="at"/><path d="M100-194c62-1 85 37 85 99 1 63-27 99-86 99S16-35 15-95c0-66 28-99 85-99zM99-20c44 1 53-31 53-75 0-43-8-75-51-75s-53 32-53 75 10 74 51 75" id="au"/><path d="M135-143c-3-34-86-38-87 0 15 53 115 12 119 90S17 21 10-45l28-5c4 36 97 45 98 0-10-56-113-15-118-90-4-57 82-63 122-42 12 7 21 19 24 35" id="av"/><path d="M179-190L93 31C79 59 56 82 12 73V49c39 6 53-20 64-50L1-190h34L92-34l54-156h33" id="aw"/><g id="l"><use transform="matrix(0.05,0,0,0.05,0,0)" xlink:href="#ar"/><use transform="matrix(0.05,0,0,0.05,5.95,0)" xlink:href="#as"/><use transform="matrix(0.05,0,0,0.05,15.949999999999998,0)" xlink:href="#at"/><use transform="matrix(0.05,0,0,0.05,25.950000000000003,0)" xlink:href="#au"/><use transform="matrix(0.05,0,0,0.05,35.95,0)" xlink:href="#av"/><use transform="matrix(0.05,0,0,0.05,44.95,0)" xlink:href="#ap"/><use transform="matrix(0.05,0,0,0.05,48.900000000000006,0)" xlink:href="#aq"/><use transform="matrix(0.05,0,0,0.05,53.900000000000006,0)" xlink:href="#au"/><use transform="matrix(0.05,0,0,0.05,63.900000000000006,0)" xlink:href="#ar"/><use transform="matrix(0.05,0,0,0.05,69.85000000000001,0)" xlink:href="#aw"/></g><path fill="#333" d="M67-125c0 53 21 87 73 88 37 1 54-22 65-47l45 17C233-25 199 4 140 4 58 4 20-42 15-125 8-235 124-281 211-232c18 10 29 29 36 50l-46 12c-8-25-30-41-62-41-52 0-71 34-72 86" id="ax"/><path fill="#333" d="M110-194c64 0 96 36 96 99 0 64-35 99-97 99-61 0-95-36-95-99 0-62 34-99 96-99zm-1 164c35 0 45-28 45-65 0-40-10-65-43-65-34 0-45 26-45 65 0 36 10 65 43 65" id="ay"/><path fill="#333" d="M220-157c-53 9-28 100-34 157h-49v-107c1-27-5-49-29-50C55-147 81-57 75 0H25l-1-190h47c2 12-1 28 3 38 10-53 101-56 108 0 13-22 24-43 59-42 82 1 51 116 57 194h-49v-107c-1-25-5-48-29-50" id="az"/><path fill="#333" d="M25-224v-37h50v37H25zM25 0v-190h50V0H25" id="aA"/><path fill="#333" d="M115-3C79 11 28 4 28-45v-112H4v-33h27l15-45h31v45h36v33H77v99c-1 23 16 31 38 25v30" id="aB"/><g id="m"><use transform="matrix(0.04938271604938272,0,0,0.04938271604938272,0,0)" xlink:href="#ax"/><use transform="matrix(0.04938271604938272,0,0,0.04938271604938272,12.790123456790125,0)" xlink:href="#ay"/><use transform="matrix(0.04938271604938272,0,0,0.04938271604938272,23.60493827160494,0)" xlink:href="#az"/><use transform="matrix(0.04938271604938272,0,0,0.04938271604938272,39.40740740740741,0)" xlink:href="#az"/><use transform="matrix(0.04938271604938272,0,0,0.04938271604938272,55.20987654320988,0)" xlink:href="#aA"/><use transform="matrix(0.04938271604938272,0,0,0.04938271604938272,60.14814814814815,0)" xlink:href="#aB"/></g><path fill="#333" d="M186 0v-106H76V0H24v-248h52v99h110v-99h50V0h-50" id="aC"/><path fill="#333" d="M147 0L96-86 75-71V0H25v-261h50v150l67-79h53l-66 74L201 0h-54" id="aD"/><g id="n"><use transform="matrix(0.04938271604938272,0,0,0.04938271604938272,0,0)" xlink:href="#aC"/><use transform="matrix(0.04938271604938272,0,0,0.04938271604938272,12.790123456790125,0)" xlink:href="#ay"/><use transform="matrix(0.04938271604938272,0,0,0.04938271604938272,23.60493827160494,0)" xlink:href="#ay"/><use transform="matrix(0.04938271604938272,0,0,0.04938271604938272,34.41975308641975,0)" xlink:href="#aD"/></g><path fill="#3a414a" d="M126-127c33 6 58 20 58 59 0 88-139 92-164 29-3-8-5-16-6-25l32-3c6 27 21 44 54 44 32 0 52-15 52-46 0-38-36-46-79-43v-28c39 1 72-4 72-42 0-27-17-43-46-43-28 0-47 15-49 41l-32-3c6-42 35-63 81-64 48-1 79 21 79 65 0 36-21 52-52 59" id="aE"/><g id="o"><use transform="matrix(0.06172839506172839,0,0,0.06172839506172839,0,0)" xlink:href="#aa"/><use transform="matrix(0.06172839506172839,0,0,0.06172839506172839,14.814814814814813,0)" xlink:href="#aE"/></g><path fill="#3a414a" d="M101-234c-31-9-42 10-38 44h38v23H63V0H32v-167H5v-23h27c-7-52 17-82 69-68v24" id="aF"/><path fill="#3a414a" d="M114-163C36-179 61-72 57 0H25l-1-190h30c1 12-1 29 2 39 6-27 23-49 58-41v29" id="aG"/><g id="p"><use transform="matrix(0.06172839506172839,0,0,0.06172839506172839,0,0)" xlink:href="#aF"/><use transform="matrix(0.06172839506172839,0,0,0.06172839506172839,6.172839506172839,0)" xlink:href="#ac"/><use transform="matrix(0.06172839506172839,0,0,0.06172839506172839,18.51851851851852,0)" xlink:href="#aG"/></g><path fill="#3a414a" d="M160-131c35 5 61 23 61 61C221 17 115-2 30 0v-248c76 3 177-17 177 60 0 33-19 50-47 57zm-97-11c50-1 110 9 110-42 0-47-63-36-110-37v79zm0 115c55-2 124 14 124-45 0-56-70-42-124-44v89" id="aH"/><g id="q"><use transform="matrix(0.06172839506172839,0,0,0.06172839506172839,0,0)" xlink:href="#aH"/><use transform="matrix(0.06172839506172839,0,0,0.06172839506172839,14.814814814814813,0)" xlink:href="#ag"/><use transform="matrix(0.06172839506172839,0,0,0.06172839506172839,27.160493827160494,0)" xlink:href="#ah"/><use transform="matrix(0.06172839506172839,0,0,0.06172839506172839,32.03703703703704,0)" xlink:href="#ai"/><use transform="matrix(0.06172839506172839,0,0,0.06172839506172839,36.91358024691358,0)" xlink:href="#ad"/></g><path fill="#3a414a" d="M30 0v-248h33v221h125V0H30" id="aI"/><path fill="#3a414a" d="M177-190C167-65 218 103 67 71c-23-6-38-20-44-43l32-5c15 47 100 32 89-28v-30C133-14 115 1 83 1 29 1 15-40 15-95c0-56 16-97 71-98 29-1 48 16 59 35 1-10 0-23 2-32h30zM94-22c36 0 50-32 50-73 0-42-14-75-50-75-39 0-46 34-46 75s6 73 46 73" id="aJ"/><path fill="#3a414a" d="M135-143c-3-34-86-38-87 0 15 53 115 12 119 90S17 21 10-45l28-5c4 36 97 45 98 0-10-56-113-15-118-90-4-57 82-63 122-42 12 7 21 19 24 35" id="aK"/><g id="r"><use transform="matrix(0.06172839506172839,0,0,0.06172839506172839,0,0)" xlink:href="#aI"/><use transform="matrix(0.06172839506172839,0,0,0.06172839506172839,12.345679012345679,0)" xlink:href="#ac"/><use transform="matrix(0.06172839506172839,0,0,0.06172839506172839,24.691358024691358,0)" xlink:href="#aJ"/><use transform="matrix(0.06172839506172839,0,0,0.06172839506172839,37.03703703703704,0)" xlink:href="#aK"/></g><path fill="#333" d="M25 0v-261h50V0H25" id="aL"/><path fill="#333" d="M85 4C-2 5 27-109 22-190h50c7 57-23 150 33 157 60-5 35-97 40-157h50l1 190h-47c-2-12 1-28-3-38-12 25-28 42-61 42" id="aM"/><path fill="#333" d="M88-194c31-1 46 15 58 34l-1-101h50l1 261h-48c-2-10 0-23-3-31C134-8 116 4 84 4 32 4 16-41 15-95c0-56 19-97 73-99zm17 164c33 0 40-30 41-66 1-37-9-64-41-64s-38 30-39 65c0 43 13 65 39 65" id="aN"/><path fill="#333" d="M231 0h-52l-39-155L100 0H48L-1-190h46L77-45c9-52 24-97 36-145h53l37 145 32-145h46" id="aO"/><path fill="#333" d="M133-34C117-15 103 5 69 4 32 3 11-16 11-54c-1-60 55-63 116-61 1-26-3-47-28-47-18 1-26 9-28 27l-52-2c7-38 36-58 82-57s74 22 75 68l1 82c-1 14 12 18 25 15v27c-30 8-71 5-69-32zm-48 3c29 0 43-24 42-57-32 0-66-3-65 30 0 17 8 27 23 27" id="aP"/><path fill="#333" d="M190-63c-7 42-38 67-86 67-59 0-84-38-90-98-12-110 154-137 174-36l-49 2c-2-19-15-32-35-32-30 0-35 28-38 64-6 74 65 87 74 30" id="aQ"/><path fill="#333" d="M114-157C55-157 80-60 75 0H25v-261h50l-1 109c12-26 28-41 61-42 86-1 58 113 63 194h-50c-7-57 23-157-34-157" id="aR"/><g id="s"><use transform="matrix(0.04938271604938272,0,0,0.04938271604938272,0,0)" xlink:href="#ax"/><use transform="matrix(0.04938271604938272,0,0,0.04938271604938272,12.790123456790125,0)" xlink:href="#aL"/><use transform="matrix(0.04938271604938272,0,0,0.04938271604938272,17.7283950617284,0)" xlink:href="#ay"/><use transform="matrix(0.04938271604938272,0,0,0.04938271604938272,28.54320987654322,0)" xlink:href="#aM"/><use transform="matrix(0.04938271604938272,0,0,0.04938271604938272,39.35802469135803,0)" xlink:href="#aN"/><use transform="matrix(0.04938271604938272,0,0,0.04938271604938272,50.17283950617285,0)" xlink:href="#aO"/><use transform="matrix(0.04938271604938272,0,0,0.04938271604938272,64.00000000000001,0)" xlink:href="#aP"/><use transform="matrix(0.04938271604938272,0,0,0.04938271604938272,73.87654320987656,0)" xlink:href="#aB"/><use transform="matrix(0.04938271604938272,0,0,0.04938271604938272,79.7530864197531,0)" xlink:href="#aQ"/><use transform="matrix(0.04938271604938272,0,0,0.04938271604938272,89.62962962962965,0)" xlink:href="#aR"/></g><path fill="#333" d="M24 0v-248h195v40H76v63h132v40H76v65h150V0H24" id="aS"/><path fill="#333" d="M128 0H69L1-190h53L99-40l48-150h52" id="aT"/><path fill="#333" d="M185-48c-13 30-37 53-82 52C43 2 14-33 14-96s30-98 90-98c62 0 83 45 84 108H66c0 31 8 55 39 56 18 0 30-7 34-22zm-45-69c5-46-57-63-70-21-2 6-4 13-4 21h74" id="aU"/><path fill="#333" d="M135-194c87-1 58 113 63 194h-50c-7-57 23-157-34-157-59 0-34 97-39 157H25l-1-190h47c2 12-1 28 3 38 12-26 28-41 61-42" id="aV"/><g id="t"><use transform="matrix(0.04938271604938272,0,0,0.04938271604938272,0,0)" xlink:href="#aS"/><use transform="matrix(0.04938271604938272,0,0,0.04938271604938272,11.851851851851853,0)" xlink:href="#aT"/><use transform="matrix(0.04938271604938272,0,0,0.04938271604938272,21.7283950617284,0)" xlink:href="#aU"/><use transform="matrix(0.04938271604938272,0,0,0.04938271604938272,31.60493827160494,0)" xlink:href="#aV"/><use transform="matrix(0.04938271604938272,0,0,0.04938271604938272,42.41975308641976,0)" xlink:href="#aB"/></g><path fill="#3a414a" d="M30 0v-248h187v28H63v79h144v27H63v87h162V0H30" id="aW"/><path fill="#3a414a" d="M233-177c-1 41-23 64-60 70L243 0h-38l-65-103H63V0H30v-248c88 3 205-21 203 71zM63-129c60-2 137 13 137-47 0-61-80-42-137-45v92" id="aX"/><g id="u"><use transform="matrix(0.06172839506172839,0,0,0.06172839506172839,0,0)" xlink:href="#aW"/><use transform="matrix(0.06172839506172839,0,0,0.06172839506172839,14.814814814814813,0)" xlink:href="#ab"/><use transform="matrix(0.06172839506172839,0,0,0.06172839506172839,30.80246913580247,0)" xlink:href="#aX"/></g><g id="v"><use transform="matrix(0.06172839506172839,0,0,0.06172839506172839,0,0)" xlink:href="#aG"/><use transform="matrix(0.06172839506172839,0,0,0.06172839506172839,7.345679012345679,0)" xlink:href="#ae"/><use transform="matrix(0.06172839506172839,0,0,0.06172839506172839,19.691358024691358,0)" xlink:href="#aJ"/><use transform="matrix(0.06172839506172839,0,0,0.06172839506172839,32.03703703703704,0)" xlink:href="#ah"/><use transform="matrix(0.06172839506172839,0,0,0.06172839506172839,36.91358024691358,0)" xlink:href="#aK"/><use transform="matrix(0.06172839506172839,0,0,0.06172839506172839,48.0246913580247,0)" xlink:href="#ak"/><use transform="matrix(0.06172839506172839,0,0,0.06172839506172839,54.19753086419754,0)" xlink:href="#aG"/><use transform="matrix(0.06172839506172839,0,0,0.06172839506172839,61.543209876543216,0)" xlink:href="#an"/></g><path fill="#3a414a" d="M141-36C126-15 110 5 73 4 37 3 15-17 15-53c-1-64 63-63 125-63 3-35-9-54-41-54-24 1-41 7-42 31l-33-3c5-37 33-52 76-52 45 0 72 20 72 64v82c-1 20 7 32 28 27v20c-31 9-61-2-59-35zM48-53c0 20 12 33 32 33 41-3 63-29 60-74-43 2-92-5-92 41" id="aY"/><g id="w"><use transform="matrix(0.06172839506172839,0,0,0.06172839506172839,0,0)" xlink:href="#aa"/><use transform="matrix(0.06172839506172839,0,0,0.06172839506172839,14.814814814814813,0)" xlink:href="#ak"/><use transform="matrix(0.06172839506172839,0,0,0.06172839506172839,20.98765432098765,0)" xlink:href="#ac"/><use transform="matrix(0.06172839506172839,0,0,0.06172839506172839,33.33333333333333,0)" xlink:href="#aG"/><use transform="matrix(0.06172839506172839,0,0,0.06172839506172839,40.679012345679006,0)" xlink:href="#aY"/><use transform="matrix(0.06172839506172839,0,0,0.06172839506172839,53.02469135802468,0)" xlink:href="#aJ"/><use transform="matrix(0.06172839506172839,0,0,0.06172839506172839,65.37037037037037,0)" xlink:href="#ae"/></g><path fill="#3a414a" d="M96-169c-40 0-48 33-48 73s9 75 48 75c24 0 41-14 43-38l32 2c-6 37-31 61-74 61-59 0-76-41-82-99-10-93 101-131 147-64 4 7 5 14 7 22l-32 3c-4-21-16-35-41-35" id="aZ"/><path fill="#3a414a" d="M143 0L79-87 56-68V0H24v-261h32v163l83-92h37l-77 82L181 0h-38" id="ba"/><g id="x"><use transform="matrix(0.06172839506172839,0,0,0.06172839506172839,0,0)" xlink:href="#aH"/><use transform="matrix(0.06172839506172839,0,0,0.06172839506172839,14.814814814814813,0)" xlink:href="#ag"/><use transform="matrix(0.06172839506172839,0,0,0.06172839506172839,27.160493827160494,0)" xlink:href="#aZ"/><use transform="matrix(0.06172839506172839,0,0,0.06172839506172839,38.27160493827161,0)" xlink:href="#ba"/><use transform="matrix(0.06172839506172839,0,0,0.06172839506172839,49.38271604938272,0)" xlink:href="#ae"/><use transform="matrix(0.06172839506172839,0,0,0.06172839506172839,61.7283950617284,0)" xlink:href="#ak"/></g><path fill="#3a414a" d="M63-220v92h138v28H63V0H30v-248h175v28H63" id="bb"/><g id="y"><use transform="matrix(0.06172839506172839,0,0,0.06172839506172839,0,0)" xlink:href="#bb"/><use transform="matrix(0.06172839506172839,0,0,0.06172839506172839,13.518518518518517,0)" xlink:href="#aY"/><use transform="matrix(0.06172839506172839,0,0,0.06172839506172839,25.864197530864196,0)" xlink:href="#aG"/><use transform="matrix(0.06172839506172839,0,0,0.06172839506172839,33.20987654320987,0)" xlink:href="#aJ"/><use transform="matrix(0.06172839506172839,0,0,0.06172839506172839,45.55555555555555,0)" xlink:href="#aY"/><use transform="matrix(0.06172839506172839,0,0,0.06172839506172839,57.90123456790123,0)" xlink:href="#ak"/><use transform="matrix(0.06172839506172839,0,0,0.06172839506172839,64.07407407407406,0)" xlink:href="#ae"/></g></defs></g></svg>